<svg width="512" height="512" viewBox="0 0 512 512" fill="none" xmlns="http://www.w3.org/2000/svg">
  <rect width="512" height="512" rx="112" fill="#111111"/>
  <defs>
    <linearGradient id="magnets-mark-gradient" x1="0%" x2="100%" y1="100%" y2="0%">
      <stop stop-color="#FDC957"/>
      <stop offset="0.48" stop-color="#FE6F34"/>
      <stop offset="1" stop-color="#FE504F"/>
    </linearGradient>
  </defs>
  <g transform="translate(76 76) scale(5)">
    <path
      d="M47.8 9.7a6.25 6.25 0 0 1 5 11.43L29.75 31.47c-5.44 2.44-7.88 8.83-5.44 14.27 2.44 5.45 8.83 7.89 14.27 5.44l9.86-4.42a6.25 6.25 0 1 1 5.12 11.4l-9.86 4.43C31.94 67.87 18.13 62.6 12.84 50.84 7.56 39.08 12.82 25.27 24.59 19.99L47.8 9.7Z"
      fill="url(#magnets-mark-gradient)"
    />
    <path
      d="M42.84 29.61a6.25 6.25 0 0 1 5.12 11.4l-13.8 6.2a6.25 6.25 0 1 1-5.12-11.41l13.8-6.19Z"
      fill="url(#magnets-mark-gradient)"
    />
    <circle cx="49.5" cy="30.2" r="6.5" fill="#FE504F"/>
    <circle cx="53.2" cy="16.6" r="4.2" fill="#7FD4DD"/>
  </g>
</svg>
