<svg width="512" height="512" viewBox="0 0 512 512" fill="none" xmlns="http://www.w3.org/2000/svg">
  <rect width="512" height="512" rx="112" fill="#111111"/>
  <defs>
    <linearGradient id="magnet-gradient" x1="106" x2="401" y1="378" y2="134" gradientUnits="userSpaceOnUse">
      <stop stop-color="#FDC957"/>
      <stop offset="0.48" stop-color="#FE6F34"/>
      <stop offset="1" stop-color="#FE504F"/>
    </linearGradient>
  </defs>
  <g transform="translate(38 32) scale(0.84)">
    <path d="M378 86C400.2 76 426.3 85.9 436.3 108.1C446.3 130.3 436.4 156.4 414.2 166.4L230 249C186.5 268.5 167 319.6 186.5 363.1C206 406.6 257.1 426.1 300.6 406.6L379.5 371.2C401.7 361.2 427.8 371.1 437.8 393.3C447.8 415.5 437.9 441.6 415.7 451.6L336.8 487C249.2 526.3 146.3 487.1 107 399.5C67.7 311.9 106.9 209 194.5 169.7L378 86Z" fill="url(#magnet-gradient)"/>
    <path d="M338.7 236.8C360.9 226.8 387 236.7 397 258.9C407 281.1 397.1 307.2 374.9 317.2L264.5 366.7C242.3 376.7 216.2 366.8 206.2 344.6C196.2 322.4 206.1 296.3 228.3 286.3L338.7 236.8Z" fill="url(#magnet-gradient)"/>
    <circle cx="391" cy="241" r="47" fill="#FE504F"/>
    <circle cx="420" cy="133" r="31" fill="#7FD4DD"/>
  </g>
</svg>
